STARTFONT 2.1
FONT -Fondu--Medium-R-Normal--18-170-75-75-P-110-MacRoman-1
SIZE 17 75 75
FONTBOUNDINGBOX 13 18 0 -4
COMMENT Created by Fondu from a mac NFNT/FONT resource
STARTPROPERTIES 17
FOUNDRY "Fondu"
FAMILY_NAME ""
WEIGHT_NAME "Medium"
SLANT "R"
SETWIDTH_NAME "Normal"
ADD_STYLE_NAME ""
PIXEL_SIZE 18
POINT_SIZE 170
RESOLUTION_X 75
RESOLUTION_Y 75
SPACING "P"
AVERAGE_WIDTH 110
CHARSET_REGISTRY "MacRoman"
CHARSET_ENCODING "1"
FONT_ASCENT 14
FONT_DESCENT 4
FACE_NAME "nameless"
ENDPROPERTIES
CHARS 223
STARTCHAR space
ENCODING 32
SWIDTH 611 0
DWIDTH 11 0
BBX 0 0 11 -4
BITMAP
ENDCHAR
STARTCHAR exclam
ENCODING 33
SWIDTH 611 0
DWIDTH 11 0
BBX 1 11 5 0
BITMAP
80
80
80
80
80
80
80
00
00
80
80
ENDCHAR
STARTCHAR quotedbl
ENCODING 34
SWIDTH 611 0
DWIDTH 11 0
BBX 4 3 3 8
BITMAP
90
90
90
ENDCHAR
STARTCHAR numbersign
ENCODING 35
SWIDTH 611 0
DWIDTH 11 0
BBX 8 11 1 0
BITMAP
24
24
24
FF
24
24
24
FF
24
24
24
ENDCHAR
STARTCHAR dollar
ENCODING 36
SWIDTH 611 0
DWIDTH 11 0
BBX 7 14 2 -2
BITMAP
10
38
44
82
80
60
18
04
02
82
44
38
10
10
ENDCHAR
STARTCHAR percent
ENCODING 37
SWIDTH 611 0
DWIDTH 11 0
BBX 7 11 1 0
BITMAP
60
90
92
94
68
10
2C
52
92
12
0C
ENDCHAR
STARTCHAR ampersand
ENCODING 38
SWIDTH 611 0
DWIDTH 11 0
BBX 10 11 0 0
BITMAP
3800
4400
4000
2000
5000
8800
8440
8280
8100
4280
3C40
ENDCHAR
STARTCHAR quotesingle
ENCODING 39
SWIDTH 611 0
DWIDTH 11 0
BBX 1 3 4 8
BITMAP
80
80
80
ENDCHAR
STARTCHAR parenleft
ENCODING 40
SWIDTH 611 0
DWIDTH 11 0
BBX 3 15 4 -4
BITMAP
20
40
40
80
80
80
80
80
80
80
80
80
40
40
20
ENDCHAR
STARTCHAR parenright
ENCODING 41
SWIDTH 611 0
DWIDTH 11 0
BBX 3 15 4 -4
BITMAP
80
40
40
20
20
20
20
20
20
20
20
20
40
40
80
ENDCHAR
STARTCHAR asterisk
ENCODING 42
SWIDTH 611 0
DWIDTH 11 0
BBX 7 6 1 5
BITMAP
10
10
FE
10
28
44
ENDCHAR
STARTCHAR plus
ENCODING 43
SWIDTH 611 0
DWIDTH 11 0
BBX 7 7 2 1
BITMAP
10
10
10
FE
10
10
10
ENDCHAR
STARTCHAR comma
ENCODING 44
SWIDTH 611 0
DWIDTH 11 0
BBX 4 4 4 -2
BITMAP
30
60
40
80
ENDCHAR
STARTCHAR hyphen
ENCODING 45
SWIDTH 611 0
DWIDTH 11 0
BBX 9 1 1 4
BITMAP
FF80
ENDCHAR
STARTCHAR period
ENCODING 46
SWIDTH 611 0
DWIDTH 11 0
BBX 1 2 4 0
BITMAP
80
80
ENDCHAR
STARTCHAR slash
ENCODING 47
SWIDTH 611 0
DWIDTH 11 0
BBX 6 11 3 0
BITMAP
04
08
08
10
10
20
20
40
40
80
80
ENDCHAR
STARTCHAR zero
ENCODING 48
SWIDTH 611 0
DWIDTH 11 0
BBX 7 11 2 0
BITMAP
38
44
82
82
82
82
82
82
82
44
38
ENDCHAR
STARTCHAR one
ENCODING 49
SWIDTH 611 0
DWIDTH 11 0
BBX 7 11 2 0
BITMAP
10
30
50
10
10
10
10
10
10
10
FE
ENDCHAR
STARTCHAR two
ENCODING 50
SWIDTH 611 0
DWIDTH 11 0
BBX 8 11 1 0
BITMAP
3C
42
81
81
02
04
08
10
20
41
FF
ENDCHAR
STARTCHAR three
ENCODING 51
SWIDTH 611 0
DWIDTH 11 0
BBX 8 11 1 0
BITMAP
3C
42
81
01
02
1C
02
01
81
42
3C
ENDCHAR
STARTCHAR four
ENCODING 52
SWIDTH 611 0
DWIDTH 11 0
BBX 8 11 1 0
BITMAP
02
06
0A
12
22
42
82
FF
02
02
0F
ENDCHAR
STARTCHAR five
ENCODING 53
SWIDTH 611 0
DWIDTH 11 0
BBX 7 11 2 0
BITMAP
FE
80
80
80
F8
04
02
02
02
84
78
ENDCHAR
STARTCHAR six
ENCODING 54
SWIDTH 611 0
DWIDTH 11 0
BBX 7 11 2 0
BITMAP
18
20
40
40
B8
C4
82
82
82
44
38
ENDCHAR
STARTCHAR seven
ENCODING 55
SWIDTH 611 0
DWIDTH 11 0
BBX 7 11 2 0
BITMAP
FE
82
82
04
04
08
08
08
10
10
10
ENDCHAR
STARTCHAR eight
ENCODING 56
SWIDTH 611 0
DWIDTH 11 0
BBX 7 11 2 0
BITMAP
38
44
82
82
44
38
44
82
82
44
38
ENDCHAR
STARTCHAR nine
ENCODING 57
SWIDTH 611 0
DWIDTH 11 0
BBX 7 11 2 0
BITMAP
38
44
82
82
82
46
3A
04
04
08
30
ENDCHAR
STARTCHAR colon
ENCODING 58
SWIDTH 611 0
DWIDTH 11 0
BBX 1 8 5 0
BITMAP
80
80
00
00
00
00
80
80
ENDCHAR
STARTCHAR semicolon
ENCODING 59
SWIDTH 611 0
DWIDTH 11 0
BBX 4 10 2 -2
BITMAP
10
10
00
00
00
00
30
60
40
80
ENDCHAR
STARTCHAR less
ENCODING 60
SWIDTH 611 0
DWIDTH 11 0
BBX 8 7 1 1
BITMAP
03
0C
30
C0
30
0C
03
ENDCHAR
STARTCHAR equal
ENCODING 61
SWIDTH 611 0
DWIDTH 11 0
BBX 9 4 1 2
BITMAP
FF80
0000
0000
FF80
ENDCHAR
STARTCHAR greater
ENCODING 62
SWIDTH 611 0
DWIDTH 11 0
BBX 8 7 1 1
BITMAP
C0
30
0C
03
0C
30
C0
ENDCHAR
STARTCHAR question
ENCODING 63
SWIDTH 611 0
DWIDTH 11 0
BBX 7 12 1 0
BITMAP
38
44
82
82
02
04
08
10
10
00
10
10
ENDCHAR
STARTCHAR at
ENCODING 64
SWIDTH 611 0
DWIDTH 11 0
BBX 10 11 0 0
BITMAP
1E00
2100
4080
8C40
9240
9240
9240
8D80
4000
2000
1E00
ENDCHAR
STARTCHAR A
ENCODING 65
SWIDTH 611 0
DWIDTH 11 0
BBX 9 11 1 0
BITMAP
3800
0800
0800
1400
1400
2200
2200
3E00
4100
4100
E380
ENDCHAR
STARTCHAR B
ENCODING 66
SWIDTH 611 0
DWIDTH 11 0
BBX 9 11 1 0
BITMAP
FE00
4100
4080
4080
4100
7E00
4100
4080
4080
4100
FE00
ENDCHAR
STARTCHAR C
ENCODING 67
SWIDTH 611 0
DWIDTH 11 0
BBX 9 11 1 0
BITMAP
1E80
6180
4080
8000
8000
8000
8000
8000
4080
6180
1E00
ENDCHAR
STARTCHAR D
ENCODING 68
SWIDTH 611 0
DWIDTH 11 0
BBX 9 11 1 0
BITMAP
FC00
4300
4100
4080
4080
4080
4080
4080
4100
4300
FC00
ENDCHAR
STARTCHAR E
ENCODING 69
SWIDTH 611 0
DWIDTH 11 0
BBX 8 11 1 0
BITMAP
FF
41
41
40
44
7C
44
40
41
41
FF
ENDCHAR
STARTCHAR F
ENCODING 70
SWIDTH 611 0
DWIDTH 11 0
BBX 8 11 1 0
BITMAP
FF
41
41
40
44
7C
44
40
40
40
E0
ENDCHAR
STARTCHAR G
ENCODING 71
SWIDTH 611 0
DWIDTH 11 0
BBX 9 11 1 0
BITMAP
1E80
6180
4080
8000
8000
8780
8080
8080
4080
6100
1E00
ENDCHAR
STARTCHAR H
ENCODING 72
SWIDTH 611 0
DWIDTH 11 0
BBX 9 11 1 0
BITMAP
E380
4100
4100
4100
4100
7F00
4100
4100
4100
4100
E380
ENDCHAR
STARTCHAR I
ENCODING 73
SWIDTH 611 0
DWIDTH 11 0
BBX 7 11 2 0
BITMAP
FE
10
10
10
10
10
10
10
10
10
FE
ENDCHAR
STARTCHAR J
ENCODING 74
SWIDTH 611 0
DWIDTH 11 0
BBX 9 11 1 0
BITMAP
3F80
0200
0200
0200
0200
0200
0200
8200
8200
4400
3800
ENDCHAR
STARTCHAR K
ENCODING 75
SWIDTH 611 0
DWIDTH 11 0
BBX 10 11 0 0
BITMAP
F380
4400
4800
5000
6000
5000
4800
4400
4200
4100
F3C0
ENDCHAR
STARTCHAR L
ENCODING 76
SWIDTH 611 0
DWIDTH 11 0
BBX 9 11 1 0
BITMAP
F800
2000
2000
2000
2000
2000
2000
2000
2080
2080
FF80
ENDCHAR
STARTCHAR M
ENCODING 77
SWIDTH 611 0
DWIDTH 11 0
BBX 11 11 0 0
BITMAP
E0E0
60C0
5140
5140
4A40
4A40
4440
4440
4040
4040
E0E0
ENDCHAR
STARTCHAR N
ENCODING 78
SWIDTH 611 0
DWIDTH 11 0
BBX 9 11 1 0
BITMAP
E380
6100
5100
5100
4900
4900
4500
4500
4300
4300
E100
ENDCHAR
STARTCHAR O
ENCODING 79
SWIDTH 611 0
DWIDTH 11 0
BBX 9 11 1 0
BITMAP
1C00
6300
4100
8080
8080
8080
8080
8080
4100
6300
1C00
ENDCHAR
STARTCHAR P
ENCODING 80
SWIDTH 611 0
DWIDTH 11 0
BBX 8 11 1 0
BITMAP
FC
42
41
41
41
42
7C
40
40
40
E0
ENDCHAR
STARTCHAR Q
ENCODING 81
SWIDTH 611 0
DWIDTH 11 0
BBX 9 12 1 -1
BITMAP
1C00
6300
4100
8080
8080
8080
8080
8080
4100
6300
1C80
2700
ENDCHAR
STARTCHAR R
ENCODING 82
SWIDTH 611 0
DWIDTH 11 0
BBX 9 11 0 0
BITMAP
FC00
4200
4100
4100
4200
7C00
4800
4400
4200
4100
E180
ENDCHAR
STARTCHAR S
ENCODING 83
SWIDTH 611 0
DWIDTH 11 0
BBX 7 11 2 0
BITMAP
3A
46
82
80
40
38
04
02
82
C4
B8
ENDCHAR
STARTCHAR T
ENCODING 84
SWIDTH 611 0
DWIDTH 11 0
BBX 9 11 1 0
BITMAP
FF80
8880
8880
0800
0800
0800
0800
0800
0800
0800
3E00
ENDCHAR
STARTCHAR U
ENCODING 85
SWIDTH 611 0
DWIDTH 11 0
BBX 9 11 0 0
BITMAP
F780
4100
4100
4100
4100
4100
4100
4100
4100
2200
1C00
ENDCHAR
STARTCHAR V
ENCODING 86
SWIDTH 611 0
DWIDTH 11 0
BBX 9 11 1 0
BITMAP
E380
4100
4100
2200
2200
1400
1400
1400
0800
0800
0800
ENDCHAR
STARTCHAR W
ENCODING 87
SWIDTH 611 0
DWIDTH 11 0
BBX 11 11 0 0
BITMAP
E0E0
4440
4440
2480
2A80
2A80
2A80
1100
1100
1100
1100
ENDCHAR
STARTCHAR X
ENCODING 88
SWIDTH 611 0
DWIDTH 11 0
BBX 9 11 1 0
BITMAP
E380
4100
2200
2200
1400
0800
1400
2200
2200
4100
E380
ENDCHAR
STARTCHAR Y
ENCODING 89
SWIDTH 611 0
DWIDTH 11 0
BBX 9 11 1 0
BITMAP
E380
4100
2200
2200
1400
1400
0800
0800
0800
0800
3E00
ENDCHAR
STARTCHAR Z
ENCODING 90
SWIDTH 611 0
DWIDTH 11 0
BBX 8 11 1 0
BITMAP
FF
82
84
04
08
10
20
20
41
81
FF
ENDCHAR
STARTCHAR bracketleft
ENCODING 91
SWIDTH 611 0
DWIDTH 11 0
BBX 3 15 4 -4
BITMAP
E0
80
80
80
80
80
80
80
80
80
80
80
80
80
E0
ENDCHAR
STARTCHAR backslash
ENCODING 92
SWIDTH 611 0
DWIDTH 11 0
BBX 6 11 2 0
BITMAP
80
40
40
20
20
10
10
08
08
04
04
ENDCHAR
STARTCHAR bracketright
ENCODING 93
SWIDTH 611 0
DWIDTH 11 0
BBX 3 15 3 -4
BITMAP
E0
20
20
20
20
20
20
20
20
20
20
20
20
20
E0
ENDCHAR
STARTCHAR asciicircum
ENCODING 94
SWIDTH 611 0
DWIDTH 11 0
BBX 7 4 2 7
BITMAP
10
28
44
82
ENDCHAR
STARTCHAR underscore
ENCODING 95
SWIDTH 611 0
DWIDTH 11 0
BBX 11 1 0 -3
BITMAP
FFE0
ENDCHAR
STARTCHAR grave
ENCODING 96
SWIDTH 611 0
DWIDTH 11 0
BBX 3 3 3 8
BITMAP
80
40
20
ENDCHAR
STARTCHAR a
ENCODING 97
SWIDTH 611 0
DWIDTH 11 0
BBX 9 8 1 0
BITMAP
3C00
4200
0200
3E00
4200
8200
8600
7980
ENDCHAR
STARTCHAR b
ENCODING 98
SWIDTH 611 0
DWIDTH 11 0
BBX 9 11 1 0
BITMAP
C000
4000
4000
5E00
6100
4080
4080
4080
4080
6100
DE00
ENDCHAR
STARTCHAR c
ENCODING 99
SWIDTH 611 0
DWIDTH 11 0
BBX 7 8 1 0
BITMAP
3E
42
80
80
80
80
42
3C
ENDCHAR
STARTCHAR d
ENCODING 100
SWIDTH 611 0
DWIDTH 11 0
BBX 9 11 1 0
BITMAP
0300
0100
0100
3D00
4300
8100
8100
8100
8100
4300
3D80
ENDCHAR
STARTCHAR e
ENCODING 101
SWIDTH 611 0
DWIDTH 11 0
BBX 8 8 1 0
BITMAP
3C
42
81
FF
80
81
42
3C
ENDCHAR
STARTCHAR f
ENCODING 102
SWIDTH 611 0
DWIDTH 11 0
BBX 8 11 2 0
BITMAP
0F
10
20
FE
20
20
20
20
20
20
FE
ENDCHAR
STARTCHAR g
ENCODING 103
SWIDTH 611 0
DWIDTH 11 0
BBX 8 12 1 -4
BITMAP
3D
43
81
81
81
81
43
3D
01
01
02
3C
ENDCHAR
STARTCHAR h
ENCODING 104
SWIDTH 611 0
DWIDTH 11 0
BBX 9 11 1 0
BITMAP
C000
4000
4000
5C00
6200
4100
4100
4100
4100
4100
E380
ENDCHAR
STARTCHAR i
ENCODING 105
SWIDTH 611 0
DWIDTH 11 0
BBX 7 11 2 0
BITMAP
10
10
00
70
10
10
10
10
10
10
FE
ENDCHAR
STARTCHAR j
ENCODING 106
SWIDTH 611 0
DWIDTH 11 0
BBX 6 15 2 -4
BITMAP
04
04
00
FC
04
04
04
04
04
04
04
04
04
08
F0
ENDCHAR
STARTCHAR k
ENCODING 107
SWIDTH 611 0
DWIDTH 11 0
BBX 9 11 1 0
BITMAP
E000
2000
2000
2780
2200
2400
3800
2800
2400
2200
F780
ENDCHAR
STARTCHAR l
ENCODING 108
SWIDTH 611 0
DWIDTH 11 0
BBX 7 11 2 0
BITMAP
F0
10
10
10
10
10
10
10
10
10
FE
ENDCHAR
STARTCHAR m
ENCODING 109
SWIDTH 611 0
DWIDTH 11 0
BBX 11 8 0 0
BITMAP
DB80
6440
4440
4440
4440
4440
4440
EEE0
ENDCHAR
STARTCHAR n
ENCODING 110
SWIDTH 611 0
DWIDTH 11 0
BBX 9 8 1 0
BITMAP
DC00
6200
4100
4100
4100
4100
4100
E380
ENDCHAR
STARTCHAR o
ENCODING 111
SWIDTH 611 0
DWIDTH 11 0
BBX 8 8 1 0
BITMAP
3C
42
81
81
81
81
42
3C
ENDCHAR
STARTCHAR p
ENCODING 112
SWIDTH 611 0
DWIDTH 11 0
BBX 9 12 1 -4
BITMAP
DE00
6100
4080
4080
4080
4080
6100
5E00
4000
4000
4000
F000
ENDCHAR
STARTCHAR q
ENCODING 113
SWIDTH 611 0
DWIDTH 11 0
BBX 9 12 1 -4
BITMAP
3D80
4300
8100
8100
8100
8100
4300
3D00
0100
0100
0100
0780
ENDCHAR
STARTCHAR r
ENCODING 114
SWIDTH 611 0
DWIDTH 11 0
BBX 8 8 1 0
BITMAP
E6
29
30
20
20
20
20
FC
ENDCHAR
STARTCHAR s
ENCODING 115
SWIDTH 611 0
DWIDTH 11 0
BBX 7 8 2 0
BITMAP
7E
82
80
7C
02
02
82
FC
ENDCHAR
STARTCHAR t
ENCODING 116
SWIDTH 611 0
DWIDTH 11 0
BBX 8 11 1 0
BITMAP
20
20
20
FE
20
20
20
20
20
11
0E
ENDCHAR
STARTCHAR u
ENCODING 117
SWIDTH 611 0
DWIDTH 11 0
BBX 11 8 0 0
BITMAP
E380
2080
2080
2080
2080
2080
1180
0EE0
ENDCHAR
STARTCHAR v
ENCODING 118
SWIDTH 611 0
DWIDTH 11 0
BBX 9 8 1 0
BITMAP
E380
4100
2200
2200
1400
1400
0800
0800
ENDCHAR
STARTCHAR w
ENCODING 119
SWIDTH 611 0
DWIDTH 11 0
BBX 11 8 0 0
BITMAP
F1E0
4440
4440
2A80
2A80
1100
1100
1100
ENDCHAR
STARTCHAR x
ENCODING 120
SWIDTH 611 0
DWIDTH 11 0
BBX 10 8 0 0
BITMAP
FBC0
2100
1200
0C00
0C00
1200
2100
FBC0
ENDCHAR
STARTCHAR y
ENCODING 121
SWIDTH 611 0
DWIDTH 11 0
BBX 11 12 0 -4
BITMAP
F3E0
2080
2080
1100
1100
0A00
0A00
0400
0400
0800
0800
3C00
ENDCHAR
STARTCHAR z
ENCODING 122
SWIDTH 611 0
DWIDTH 11 0
BBX 8 8 1 0
BITMAP
FF
82
84
08
10
21
41
FF
ENDCHAR
STARTCHAR braceleft
ENCODING 123
SWIDTH 611 0
DWIDTH 11 0
BBX 4 15 4 -4
BITMAP
30
40
40
40
40
40
40
80
40
40
40
40
40
40
30
ENDCHAR
STARTCHAR bar
ENCODING 124
SWIDTH 611 0
DWIDTH 11 0
BBX 1 15 5 -4
BITMAP
80
80
80
80
80
80
80
80
80
80
80
80
80
80
80
ENDCHAR
STARTCHAR braceright
ENCODING 125
SWIDTH 611 0
DWIDTH 11 0
BBX 4 15 3 -4
BITMAP
C0
20
20
20
20
20
20
10
20
20
20
20
20
20
C0
ENDCHAR
STARTCHAR asciitilde
ENCODING 126
SWIDTH 611 0
DWIDTH 11 0
BBX 8 2 1 9
BITMAP
71
8E
ENDCHAR
STARTCHAR Adieresis
ENCODING 128
SWIDTH 611 0
DWIDTH 11 0
BBX 9 14 1 0
BITMAP
2200
2200
0000
3800
0800
0800
1400
1400
2200
2200
3E00
4100
4100
E380
ENDCHAR
STARTCHAR Aring
ENCODING 129
SWIDTH 611 0
DWIDTH 11 0
BBX 9 13 1 0
BITMAP
3E00
0000
3800
0800
0800
1400
1400
2200
2200
3E00
4100
4100
E380
ENDCHAR
STARTCHAR Ccedilla
ENCODING 130
SWIDTH 611 0
DWIDTH 11 0
BBX 9 10 2 0
BITMAP
7E00
0000
3C00
4200
0200
3E00
4200
8200
8600
7980
ENDCHAR
STARTCHAR Eacute
ENCODING 131
SWIDTH 611 0
DWIDTH 11 0
BBX 8 14 1 0
BITMAP
04
08
10
FF
41
41
40
44
7C
44
40
41
41
FF
ENDCHAR
STARTCHAR Ntilde
ENCODING 132
SWIDTH 611 0
DWIDTH 11 0
BBX 9 14 1 -3
BITMAP
3800
0800
0800
1400
1400
2200
2200
3E00
4100
4100
E380
0100
0200
0180
ENDCHAR
STARTCHAR Odieresis
ENCODING 133
SWIDTH 611 0
DWIDTH 11 0
BBX 9 14 1 0
BITMAP
2200
2200
0000
1C00
6300
4100
8080
8080
8080
8080
8080
4100
6300
1C00
ENDCHAR
STARTCHAR Udieresis
ENCODING 134
SWIDTH 611 0
DWIDTH 11 0
BBX 9 14 1 0
BITMAP
2200
2200
0000
F780
4100
4100
4100
4100
4100
4100
4100
4100
2200
1C00
ENDCHAR
STARTCHAR aacute
ENCODING 135
SWIDTH 611 0
DWIDTH 11 0
BBX 9 12 2 0
BITMAP
0400
0800
1000
0000
3C00
4200
0200
3E00
4200
8200
8600
7980
ENDCHAR
STARTCHAR agrave
ENCODING 136
SWIDTH 611 0
DWIDTH 11 0
BBX 9 11 2 -3
BITMAP
3C00
4200
0200
3E00
4200
8200
8600
7B80
0100
0200
0180
ENDCHAR
STARTCHAR acircumflex
ENCODING 137
SWIDTH 611 0
DWIDTH 11 0
BBX 9 14 1 0
BITMAP
2200
1400
0800
1E80
6180
4080
8000
8000
8000
8000
8000
4080
6180
1E00
ENDCHAR
STARTCHAR adieresis
ENCODING 138
SWIDTH 611 0
DWIDTH 11 0
BBX 9 11 2 0
BITMAP
2400
2400
0000
3C00
4200
0200
3E00
4200
8200
8600
7980
ENDCHAR
STARTCHAR atilde
ENCODING 139
SWIDTH 611 0
DWIDTH 11 0
BBX 7 12 2 0
BITMAP
44
28
10
00
3E
42
80
80
80
80
42
3C
ENDCHAR
STARTCHAR aring
ENCODING 140
SWIDTH 611 0
DWIDTH 11 0
BBX 9 14 1 0
BITMAP
0200
0400
0800
1E80
6180
4080
8000
8000
8000
8000
8000
4080
6180
1E00
ENDCHAR
STARTCHAR ccedilla
ENCODING 141
SWIDTH 611 0
DWIDTH 11 0
BBX 7 12 2 0
BITMAP
04
08
10
00
3E
42
80
80
80
80
42
3C
ENDCHAR
STARTCHAR eacute
ENCODING 142
SWIDTH 611 0
DWIDTH 11 0
BBX 8 12 2 0
BITMAP
04
08
10
00
3C
42
81
FF
80
81
42
3C
ENDCHAR
STARTCHAR egrave
ENCODING 143
SWIDTH 611 0
DWIDTH 11 0
BBX 8 14 1 0
BITMAP
04
08
10
FF
82
84
04
08
10
20
20
41
81
FF
ENDCHAR
STARTCHAR ecircumflex
ENCODING 144
SWIDTH 611 0
DWIDTH 11 0
BBX 8 12 1 0
BITMAP
04
08
10
00
FF
82
84
08
10
21
41
FF
ENDCHAR
STARTCHAR edieresis
ENCODING 145
SWIDTH 611 0
DWIDTH 11 0
BBX 9 14 1 0
BITMAP
4400
2800
1000
FC00
4300
4100
4080
4080
4080
4080
4080
4100
4300
FC00
ENDCHAR
STARTCHAR iacute
ENCODING 146
SWIDTH 611 0
DWIDTH 11 0
BBX 7 12 2 0
BITMAP
08
10
20
00
F0
10
10
10
10
10
10
FE
ENDCHAR
STARTCHAR igrave
ENCODING 147
SWIDTH 611 0
DWIDTH 11 0
BBX 11 13 1 0
BITMAP
0060
0060
0320
0140
0100
3D00
4300
8100
8100
8100
8100
4300
3D80
ENDCHAR
STARTCHAR icircumflex
ENCODING 148
SWIDTH 611 0
DWIDTH 11 0
BBX 8 13 1 0
BITMAP
7E
00
FF
41
41
40
44
7C
44
40
41
41
FF
ENDCHAR
STARTCHAR idieresis
ENCODING 149
SWIDTH 611 0
DWIDTH 11 0
BBX 8 10 2 0
BITMAP
7E
00
3C
42
81
FF
80
81
42
3C
ENDCHAR
STARTCHAR ntilde
ENCODING 150
SWIDTH 611 0
DWIDTH 11 0
BBX 8 14 1 0
BITMAP
18
18
00
FF
41
41
40
44
7C
44
40
41
41
FF
ENDCHAR
STARTCHAR oacute
ENCODING 151
SWIDTH 611 0
DWIDTH 11 0
BBX 8 12 1 0
BITMAP
04
08
10
00
3C
42
81
81
81
81
42
3C
ENDCHAR
STARTCHAR ograve
ENCODING 152
SWIDTH 611 0
DWIDTH 11 0
BBX 8 11 2 0
BITMAP
18
18
00
3C
42
81
FF
80
81
42
3C
ENDCHAR
STARTCHAR ocircumflex
ENCODING 153
SWIDTH 611 0
DWIDTH 11 0
BBX 8 12 1 0
BITMAP
18
24
42
00
3C
42
81
81
81
81
42
3C
ENDCHAR
STARTCHAR odieresis
ENCODING 154
SWIDTH 611 0
DWIDTH 11 0
BBX 8 11 1 0
BITMAP
24
24
00
3C
42
81
81
81
81
42
3C
ENDCHAR
STARTCHAR otilde
ENCODING 155
SWIDTH 611 0
DWIDTH 11 0
BBX 8 11 1 0
BITMAP
32
4C
00
3C
42
81
81
81
81
42
3C
ENDCHAR
STARTCHAR uacute
ENCODING 156
SWIDTH 611 0
DWIDTH 11 0
BBX 11 12 0 0
BITMAP
0200
0400
0800
0000
E380
2080
2080
2080
2080
2080
1180
0EE0
ENDCHAR
STARTCHAR ugrave
ENCODING 157
SWIDTH 611 0
DWIDTH 11 0
BBX 8 14 1 0
BITMAP
44
28
10
FF
41
41
40
44
7C
44
40
41
41
FF
ENDCHAR
STARTCHAR ucircumflex
ENCODING 158
SWIDTH 611 0
DWIDTH 11 0
BBX 8 12 2 0
BITMAP
44
28
10
00
3C
42
81
FF
80
81
42
3C
ENDCHAR
STARTCHAR udieresis
ENCODING 159
SWIDTH 611 0
DWIDTH 11 0
BBX 11 11 0 0
BITMAP
1100
1100
0000
E380
2080
2080
2080
2080
2080
1180
0EE0
ENDCHAR
STARTCHAR dagger
ENCODING 160
SWIDTH 611 0
DWIDTH 11 0
BBX 7 14 1 -3
BITMAP
10
10
10
FE
10
10
10
10
10
10
10
10
10
10
ENDCHAR
STARTCHAR degree
ENCODING 161
SWIDTH 611 0
DWIDTH 11 0
BBX 5 5 2 6
BITMAP
70
88
88
88
70
ENDCHAR
STARTCHAR cent
ENCODING 162
SWIDTH 611 0
DWIDTH 11 0
BBX 8 14 1 -3
BITMAP
FF
41
41
40
44
7C
44
40
41
41
FF
04
08
06
ENDCHAR
STARTCHAR sterling
ENCODING 163
SWIDTH 611 0
DWIDTH 11 0
BBX 9 11 1 0
BITMAP
1C00
2200
4000
4000
4000
F000
4000
4080
4080
4100
FE00
ENDCHAR
STARTCHAR section
ENCODING 164
SWIDTH 611 0
DWIDTH 11 0
BBX 8 15 1 -3
BITMAP
3C
42
40
40
20
58
86
81
61
1A
04
02
02
42
3C
ENDCHAR
STARTCHAR bullet
ENCODING 165
SWIDTH 611 0
DWIDTH 11 0
BBX 5 5 2 3
BITMAP
70
F8
F8
F8
70
ENDCHAR
STARTCHAR paragraph
ENCODING 166
SWIDTH 611 0
DWIDTH 11 0
BBX 8 16 1 -4
BITMAP
3F
4A
8A
8A
8A
4A
3A
0A
0A
0A
0A
0A
0A
0A
0A
1B
ENDCHAR
STARTCHAR germandbls
ENCODING 167
SWIDTH 611 0
DWIDTH 11 0
BBX 8 12 1 0
BITMAP
1C
22
41
41
42
4C
42
41
41
49
49
E6
ENDCHAR
STARTCHAR registered
ENCODING 168
SWIDTH 777 0
DWIDTH 14 0
BBX 12 12 1 0
BITMAP
0F00
30C0
6060
5E20
8910
8910
8E10
8910
5CA0
6060
30C0
0F00
ENDCHAR
STARTCHAR copyright
ENCODING 169
SWIDTH 777 0
DWIDTH 14 0
BBX 12 12 1 0
BITMAP
0F00
30C0
6060
4720
8910
9010
9010
8910
4620
6060
30C0
0F00
ENDCHAR
STARTCHAR trademark
ENCODING 170
SWIDTH 888 0
DWIDTH 16 0
BBX 13 6 1 5
BITMAP
FB18
A9B0
2150
2110
2110
73B8
ENDCHAR
STARTCHAR acute
ENCODING 171
SWIDTH 611 0
DWIDTH 11 0
BBX 8 11 2 -3
BITMAP
3C
42
81
FF
80
81
42
3C
08
10
0C
ENDCHAR
STARTCHAR dieresis
ENCODING 172
SWIDTH 500 0
DWIDTH 9 0
BBX 5 2 2 12
BITMAP
88
88
ENDCHAR
STARTCHAR notequal
ENCODING 173
SWIDTH 555 0
DWIDTH 10 0
BBX 9 8 0 0
BITMAP
0080
0100
FF80
0400
0800
FF80
2000
4000
ENDCHAR
STARTCHAR AE
ENCODING 174
SWIDTH 611 0
DWIDTH 11 0
BBX 8 16 1 -4
BITMAP
04
08
08
00
3D
43
81
81
81
81
43
3D
01
01
02
3C
ENDCHAR
STARTCHAR Oslash
ENCODING 175
SWIDTH 611 0
DWIDTH 11 0
BBX 7 14 2 -3
BITMAP
FE
10
10
10
10
10
10
10
10
10
FE
10
20
30
ENDCHAR
STARTCHAR infinity
ENCODING 176
SWIDTH 611 0
DWIDTH 11 0
BBX 7 14 2 -3
BITMAP
10
10
00
70
10
10
10
10
10
10
FE
10
20
30
ENDCHAR
STARTCHAR plusminus
ENCODING 177
SWIDTH 611 0
DWIDTH 11 0
BBX 7 13 2 0
BITMAP
FE
00
FE
10
10
10
10
10
10
10
10
10
FE
ENDCHAR
STARTCHAR lessequal
ENCODING 178
SWIDTH 555 0
DWIDTH 10 0
BBX 8 8 1 0
BITMAP
03
0C
30
C0
30
0C
03
FF
ENDCHAR
STARTCHAR greaterequal
ENCODING 179
SWIDTH 555 0
DWIDTH 10 0
BBX 8 8 1 0
BITMAP
C0
30
0C
03
0C
30
C0
FF
ENDCHAR
STARTCHAR yen
ENCODING 180
SWIDTH 611 0
DWIDTH 11 0
BBX 7 10 2 0
BITMAP
FC
00
70
10
10
10
10
10
10
FE
ENDCHAR
STARTCHAR mu
ENCODING 181
SWIDTH 611 0
DWIDTH 11 0
BBX 10 15 0 -4
BITMAP
F380
4400
4800
5000
6000
5000
4800
4400
4200
4100
F3C0
0000
1800
0800
1000
ENDCHAR
STARTCHAR partialdiff
ENCODING 182
SWIDTH 500 0
DWIDTH 9 0
BBX 7 12 1 0
BITMAP
38
44
02
02
02
3E
42
82
82
82
44
38
ENDCHAR
STARTCHAR summation
ENCODING 183
SWIDTH 722 0
DWIDTH 13 0
BBX 10 13 1 -1
BITMAP
FF00
4080
2000
1000
0800
0400
0400
0800
1000
2000
4040
8080
FF00
ENDCHAR
STARTCHAR product
ENCODING 184
SWIDTH 611 0
DWIDTH 11 0
BBX 7 11 2 0
BITMAP
F0
10
10
1C
70
10
10
10
10
10
FE
ENDCHAR
STARTCHAR pi
ENCODING 185
SWIDTH 611 0
DWIDTH 11 0
BBX 9 15 1 -4
BITMAP
F800
2000
2000
2000
2000
2000
2000
2000
2080
2080
FF80
0000
1800
0800
1000
ENDCHAR
STARTCHAR integral
ENCODING 186
SWIDTH 611 0
DWIDTH 11 0
BBX 7 15 2 -4
BITMAP
F0
10
10
10
10
10
10
10
10
10
FE
00
30
10
20
ENDCHAR
STARTCHAR ordfeminine
ENCODING 187
SWIDTH 611 0
DWIDTH 11 0
BBX 9 12 1 0
BITMAP
0300
FB00
2100
2200
2000
2000
2000
2000
2000
2080
2080
FF80
ENDCHAR
STARTCHAR ordmasculine
ENCODING 188
SWIDTH 611 0
DWIDTH 11 0
BBX 7 12 2 0
BITMAP
06
F6
12
14
10
10
10
10
10
10
10
FE
ENDCHAR
STARTCHAR Omega
ENCODING 189
SWIDTH 611 0
DWIDTH 11 0
BBX 9 14 1 0
BITMAP
0800
1000
2000
F800
2000
2000
2000
2000
2000
2000
2000
2080
2080
FF80
ENDCHAR
STARTCHAR ae
ENCODING 190
SWIDTH 611 0
DWIDTH 11 0
BBX 7 14 2 0
BITMAP
08
10
20
F0
10
10
10
10
10
10
10
10
10
FE
ENDCHAR
STARTCHAR oslash
ENCODING 191
SWIDTH 611 0
DWIDTH 11 0
BBX 9 15 1 -4
BITMAP
E380
6100
5100
5100
4900
4900
4500
4500
4300
4300
E100
0000
1800
0800
1000
ENDCHAR
STARTCHAR questiondown
ENCODING 192
SWIDTH 611 0
DWIDTH 11 0
BBX 9 12 1 -4
BITMAP
DC00
6200
4100
4100
4100
4100
4100
E380
0000
1800
0800
1000
ENDCHAR
STARTCHAR exclamdown
ENCODING 193
SWIDTH 611 0
DWIDTH 11 0
BBX 9 14 1 0
BITMAP
0200
0400
0800
E380
6100
5100
5100
4900
4900
4500
4500
4300
4300
E100
ENDCHAR
STARTCHAR logicalnot
ENCODING 194
SWIDTH 722 0
DWIDTH 13 0
BBX 10 4 1 1
BITMAP
FFC0
0040
0040
0040
ENDCHAR
STARTCHAR radical
ENCODING 195
SWIDTH 555 0
DWIDTH 10 0
BBX 9 12 0 0
BITMAP
0080
0080
0100
0100
0200
0200
C400
4400
2800
2800
1000
1000
ENDCHAR
STARTCHAR florin
ENCODING 196
SWIDTH 611 0
DWIDTH 11 0
BBX 9 12 1 0
BITMAP
0400
0800
1000
0000
DC00
6200
4100
4100
4100
4100
4100
E380
ENDCHAR
STARTCHAR approxequal
ENCODING 197
SWIDTH 611 0
DWIDTH 11 0
BBX 9 14 1 0
BITMAP
2200
1400
0800
E380
6100
5100
5100
4900
4900
4500
4500
4300
4300
E100
ENDCHAR
STARTCHAR Delta
ENCODING 198
SWIDTH 611 0
DWIDTH 11 0
BBX 11 12 0 0
BITMAP
0400
0400
0A00
0A00
1100
1100
2080
2080
4040
4040
8020
FFE0
ENDCHAR
STARTCHAR guillemotleft
ENCODING 199
SWIDTH 611 0
DWIDTH 11 0
BBX 8 7 1 1
BITMAP
11
22
44
88
44
22
11
ENDCHAR
STARTCHAR guillemotright
ENCODING 200
SWIDTH 611 0
DWIDTH 11 0
BBX 8 7 2 1
BITMAP
88
44
22
11
22
44
88
ENDCHAR
STARTCHAR ellipsis
ENCODING 201
SWIDTH 611 0
DWIDTH 11 0
BBX 10 2 0 0
BITMAP
CCC0
CCC0
ENDCHAR
STARTCHAR nbspace
ENCODING 202
SWIDTH 611 0
DWIDTH 11 0
BBX 0 0 0 -4
BITMAP
ENDCHAR
STARTCHAR Agrave
ENCODING 203
SWIDTH 611 0
DWIDTH 11 0
BBX 9 12 1 0
BITMAP
2200
1400
0800
0000
DC00
6200
4100
4100
4100
4100
4100
E380
ENDCHAR
STARTCHAR Atilde
ENCODING 204
SWIDTH 611 0
DWIDTH 11 0
BBX 9 14 1 0
BITMAP
1100
2200
0000
1C00
6300
4100
8080
8080
8080
8080
8080
4100
6300
1C00
ENDCHAR
STARTCHAR Otilde
ENCODING 205
SWIDTH 611 0
DWIDTH 11 0
BBX 9 14 1 0
BITMAP
1900
2600
0000
1C00
6300
4100
8080
8080
8080
8080
8080
4100
6300
1C00
ENDCHAR
STARTCHAR OE
ENCODING 206
SWIDTH 611 0
DWIDTH 11 0
BBX 8 11 1 0
BITMAP
12
24
00
3C
42
81
81
81
81
42
3C
ENDCHAR
STARTCHAR oe
ENCODING 207
SWIDTH 611 0
DWIDTH 11 0
BBX 9 13 1 0
BITMAP
7F00
0000
1C00
6300
4100
8080
8080
8080
8080
8080
4100
6300
1C00
ENDCHAR
STARTCHAR endash
ENCODING 208
SWIDTH 611 0
DWIDTH 11 0
BBX 7 1 1 4
BITMAP
FE
ENDCHAR
STARTCHAR emdash
ENCODING 209
SWIDTH 611 0
DWIDTH 11 0
BBX 11 1 0 4
BITMAP
FFE0
ENDCHAR
STARTCHAR quotedblleft
ENCODING 210
SWIDTH 611 0
DWIDTH 11 0
BBX 6 4 1 7
BITMAP
44
88
CC
CC
ENDCHAR
STARTCHAR quotedblright
ENCODING 211
SWIDTH 611 0
DWIDTH 11 0
BBX 6 4 4 7
BITMAP
CC
CC
44
88
ENDCHAR
STARTCHAR quoteleft
ENCODING 212
SWIDTH 611 0
DWIDTH 11 0
BBX 2 4 3 7
BITMAP
40
80
C0
C0
ENDCHAR
STARTCHAR quoteright
ENCODING 213
SWIDTH 611 0
DWIDTH 11 0
BBX 2 4 6 7
BITMAP
C0
C0
40
80
ENDCHAR
STARTCHAR divide
ENCODING 214
SWIDTH 555 0
DWIDTH 10 0
BBX 9 7 0 1
BITMAP
0800
0000
0000
FF80
0000
0000
0800
ENDCHAR
STARTCHAR lozenge
ENCODING 215
SWIDTH 500 0
DWIDTH 9 0
BBX 7 12 1 0
BITMAP
10
10
28
28
44
82
82
44
28
28
10
10
ENDCHAR
STARTCHAR ydieresis
ENCODING 216
SWIDTH 611 0
DWIDTH 11 0
BBX 8 10 1 0
BITMAP
7E
00
3C
42
81
81
81
81
42
3C
ENDCHAR
STARTCHAR Ydieresis
ENCODING 217
SWIDTH 611 0
DWIDTH 11 0
BBX 9 14 1 0
BITMAP
0400
0800
1000
FC00
4200
4100
4100
4200
7C00
4400
4200
4200
4100
E180
ENDCHAR
STARTCHAR fraction
ENCODING 218
SWIDTH 611 0
DWIDTH 11 0
BBX 8 12 1 0
BITMAP
04
08
10
00
E6
29
30
20
20
20
20
FC
ENDCHAR
STARTCHAR currency
ENCODING 219
SWIDTH 611 0
DWIDTH 11 0
BBX 9 14 1 0
BITMAP
4400
2800
1000
FC00
4200
4100
4100
4200
7C00
4400
4200
4200
4100
E180
ENDCHAR
STARTCHAR guilsinglleft
ENCODING 220
SWIDTH 611 0
DWIDTH 11 0
BBX 7 13 2 -1
BITMAP
02
04
08
10
20
40
80
40
20
10
08
04
02
ENDCHAR
STARTCHAR guilsinglright
ENCODING 221
SWIDTH 611 0
DWIDTH 11 0
BBX 7 13 2 -1
BITMAP
80
40
20
10
08
04
02
04
08
10
20
40
80
ENDCHAR
STARTCHAR fi
ENCODING 222
SWIDTH 611 0
DWIDTH 11 0
BBX 8 12 1 0
BITMAP
44
28
10
00
E6
29
30
20
20
20
20
FC
ENDCHAR
STARTCHAR fl
ENCODING 223
SWIDTH 611 0
DWIDTH 11 0
BBX 9 15 1 -4
BITMAP
FC00
4200
4100
4100
4200
7C00
4400
4200
4200
4100
E180
0000
1800
0800
1000
ENDCHAR
STARTCHAR daggerdbl
ENCODING 224
SWIDTH 611 0
DWIDTH 11 0
BBX 8 12 1 -4
BITMAP
E6
29
30
20
20
20
20
FC
00
30
10
20
ENDCHAR
STARTCHAR periodcentered
ENCODING 225
SWIDTH 611 0
DWIDTH 11 0
BBX 7 14 2 0
BITMAP
44
28
10
3A
46
82
80
40
38
04
02
82
C4
B8
ENDCHAR
STARTCHAR quotesinglbase
ENCODING 226
SWIDTH 611 0
DWIDTH 11 0
BBX 2 4 6 -2
BITMAP
C0
C0
40
80
ENDCHAR
STARTCHAR quotedblbase
ENCODING 227
SWIDTH 611 0
DWIDTH 11 0
BBX 6 4 4 -2
BITMAP
CC
CC
44
88
ENDCHAR
STARTCHAR perthousand
ENCODING 228
SWIDTH 611 0
DWIDTH 11 0
BBX 7 12 2 0
BITMAP
44
28
10
00
7E
82
80
7C
02
02
82
FC
ENDCHAR
STARTCHAR Acircumflex
ENCODING 229
SWIDTH 611 0
DWIDTH 11 0
BBX 7 14 2 0
BITMAP
04
08
10
3A
46
82
80
40
38
04
02
82
C4
B8
ENDCHAR
STARTCHAR Ecircumflex
ENCODING 230
SWIDTH 611 0
DWIDTH 11 0
BBX 7 12 2 0
BITMAP
04
08
10
00
7E
82
80
7C
02
02
82
FC
ENDCHAR
STARTCHAR Aacute
ENCODING 231
SWIDTH 611 0
DWIDTH 11 0
BBX 9 14 1 0
BITMAP
0200
0400
0800
1800
0800
0800
1400
1400
2200
2200
7F00
4100
4100
E380
ENDCHAR
STARTCHAR Edieresis
ENCODING 232
SWIDTH 611 0
DWIDTH 11 0
BBX 9 14 1 0
BITMAP
2200
1400
0800
FF80
8880
8880
0800
0800
0800
0800
0800
0800
0800
3E00
ENDCHAR
STARTCHAR Egrave
ENCODING 233
SWIDTH 611 0
DWIDTH 11 0
BBX 8 13 1 0
BITMAP
06
06
22
24
20
FE
20
20
20
20
20
11
0E
ENDCHAR
STARTCHAR Iacute
ENCODING 234
SWIDTH 611 0
DWIDTH 11 0
BBX 7 14 2 0
BITMAP
04
08
10
FE
10
10
10
10
10
10
10
10
10
FE
ENDCHAR
STARTCHAR Icircumflex
ENCODING 235
SWIDTH 611 0
DWIDTH 11 0
BBX 8 14 1 0
BITMAP
44
28
10
FF
82
84
04
08
10
20
20
41
81
FF
ENDCHAR
STARTCHAR Idieresis
ENCODING 236
SWIDTH 611 0
DWIDTH 11 0
BBX 8 12 2 0
BITMAP
44
28
10
00
FF
82
84
08
10
21
41
FF
ENDCHAR
STARTCHAR Igrave
ENCODING 237
SWIDTH 611 0
DWIDTH 11 0
BBX 9 13 1 0
BITMAP
7F00
0000
F780
4100
4100
4100
4100
4100
4100
4100
4100
2200
1C00
ENDCHAR
STARTCHAR Oacute
ENCODING 238
SWIDTH 611 0
DWIDTH 11 0
BBX 9 14 1 0
BITMAP
0200
0400
0800
1C00
6300
4100
8080
8080
8080
8080
8080
4100
6300
1C00
ENDCHAR
STARTCHAR Ocircumflex
ENCODING 239
SWIDTH 611 0
DWIDTH 11 0
BBX 9 14 1 0
BITMAP
0800
1400
2200
1C00
6300
4100
8080
8080
8080
8080
8080
4100
6300
1C00
ENDCHAR
STARTCHAR apple
ENCODING 240
SWIDTH 611 0
DWIDTH 11 0
BBX 11 10 0 0
BITMAP
3F00
0000
E380
2080
2080
2080
2080
2080
1180
0EE0
ENDCHAR
STARTCHAR Ograve
ENCODING 241
SWIDTH 611 0
DWIDTH 11 0
BBX 9 14 1 0
BITMAP
0C00
1200
1200
ED80
4100
4100
4100
4100
4100
4100
4100
4100
2200
1C00
ENDCHAR
STARTCHAR Uacute
ENCODING 242
SWIDTH 611 0
DWIDTH 11 0
BBX 9 14 0 0
BITMAP
0200
0400
0800
E380
4100
4100
4100
4100
4100
4100
4100
4100
2200
1C00
ENDCHAR
STARTCHAR Ucircumflex
ENCODING 243
SWIDTH 611 0
DWIDTH 11 0
BBX 11 13 0 0
BITMAP
0C00
1200
1200
0C00
0000
E380
2080
2080
2080
2080
2080
1180
0EE0
ENDCHAR
STARTCHAR Ugrave
ENCODING 244
SWIDTH 611 0
DWIDTH 11 0
BBX 9 14 1 0
BITMAP
1100
2200
0000
F780
4100
4100
4100
4100
4100
4100
4100
4100
2200
1C00
ENDCHAR
STARTCHAR dotlessi
ENCODING 245
SWIDTH 611 0
DWIDTH 11 0
BBX 11 11 0 0
BITMAP
0880
1100
0000
E380
2080
2080
2080
2080
2080
1180
0EE0
ENDCHAR
STARTCHAR circumflex
ENCODING 246
SWIDTH 611 0
DWIDTH 11 0
BBX 9 14 1 -3
BITMAP
F780
4100
4100
4100
4100
4100
4100
4100
4100
2200
1C00
0800
1000
1800
ENDCHAR
STARTCHAR tilde
ENCODING 247
SWIDTH 611 0
DWIDTH 11 0
BBX 11 11 0 -3
BITMAP
E380
2080
2080
2080
2080
2080
1180
0EE0
0400
0800
0C00
ENDCHAR
STARTCHAR macron
ENCODING 248
SWIDTH 611 0
DWIDTH 11 0
BBX 9 14 1 0
BITMAP
0200
0400
0800
E380
4100
2200
2200
1400
1400
0800
0800
0800
0800
3E00
ENDCHAR
STARTCHAR breve
ENCODING 249
SWIDTH 611 0
DWIDTH 11 0
BBX 11 16 0 -4
BITMAP
0100
0200
0400
0000
F3E0
2080
2080
1100
1100
0A00
0A00
0400
0400
0800
0800
3C00
ENDCHAR
STARTCHAR dotaccent
ENCODING 250
SWIDTH 611 0
DWIDTH 11 0
BBX 9 15 1 -4
BITMAP
E000
2000
2000
2780
2200
2400
3800
2800
2400
2200
F780
0000
1800
0800
1000
ENDCHAR
STARTCHAR ring
ENCODING 251
SWIDTH 611 0
DWIDTH 11 0
BBX 8 14 1 0
BITMAP
18
18
00
FF
82
84
04
08
10
20
20
41
81
FF
ENDCHAR
STARTCHAR cedilla
ENCODING 252
SWIDTH 611 0
DWIDTH 11 0
BBX 9 11 1 0
BITMAP
F800
2000
2000
2000
3800
E000
2000
2000
2080
2080
FF80
ENDCHAR
STARTCHAR hungarumlaut
ENCODING 253
SWIDTH 611 0
DWIDTH 11 0
BBX 8 11 1 0
BITMAP
18
18
00
FF
82
84
08
10
21
41
FF
ENDCHAR
STARTCHAR ogonek
ENCODING 254
SWIDTH 611 0
DWIDTH 11 0
BBX 9 15 1 -4
BITMAP
1E80
6180
4080
8000
8000
8780
8080
8080
4080
6100
1E00
0000
0C00
0400
0800
ENDCHAR
STARTCHAR caron
ENCODING 255
SWIDTH 500 0
DWIDTH 9 0
BBX 5 3 2 11
BITMAP
88
50
20
ENDCHAR
ENDFONT
